<svg xmlns="http://www.w3.org/2000/svg" viewBox="0 0 512 512" width="512" height="512">
  <defs>
    <linearGradient id="heartGradient" x1="0%" y1="0%" x2="100%" y2="100%">
      <stop offset="0%" style="stop-color:#FF9AA2;stop-opacity:1" />
      <stop offset="100%" style="stop-color:#FFB7B2;stop-opacity:1" />
    </linearGradient>
  </defs>

  <!-- 배경 원 (부드러운 핑크) -->
  <circle cx="256" cy="256" r="256" fill="#FFF8F0"/>

  <!-- 메인 하트 -->
  <path d="M 256 180
           C 256 140, 220 120, 190 120
           C 150 120, 120 150, 120 190
           C 120 250, 180 300, 256 360
           C 332 300, 392 250, 392 190
           C 392 150, 362 120, 322 120
           C 292 120, 256 140, 256 180 Z"
        fill="url(#heartGradient)"
        stroke="none"/>

  <!-- 작은 하트 장식 -->
  <path d="M 380 140
           C 380 130, 373 125, 365 125
           C 357 125, 350 130, 350 140
           C 350 155, 365 165, 380 175
           C 395 165, 410 155, 410 140
           C 410 130, 403 125, 395 125
           C 387 125, 380 130, 380 140 Z"
        fill="#FFD3A5"
        opacity="0.8"/>

  <!-- 아기 젖병 아이콘 (단순화) -->
  <g transform="translate(150, 390)">
    <rect x="0" y="0" width="40" height="15" rx="3" fill="#A8E6CF" opacity="0.9"/>
    <rect x="8" y="10" width="24" height="50" rx="5" fill="#A8E6CF" opacity="0.9"/>
    <circle cx="20" cy="30" r="3" fill="white" opacity="0.6"/>
  </g>
</svg>
